<svg xmlns="http://www.w3.org/2000/svg" width="1024" height="665" viewBox="0 0 1024 665" version="1.1">
	<path d="M -0 332.501 L -0 665.002 512.250 664.751 L 1024.500 664.500 1024.751 332.250 L 1025.003 -0 512.501 -0 L 0 0 -0 332.501 M 0.494 333 C 0.494 515.875, 0.609 590.687, 0.750 499.250 C 0.891 407.812, 0.891 258.187, 0.750 166.750 C 0.609 75.312, 0.494 150.125, 0.494 333 M 953 37.941 C 953 40.173, 953.176 42, 953.391 42 C 954.191 42, 954.581 34.859, 953.806 34.380 C 953.363 34.106, 953 35.709, 953 37.941 M 14.398 37.405 C 14.102 38.177, 14.003 40.315, 14.180 42.155 L 14.500 45.500 20.750 45.798 C 24.188 45.961, 27.001 45.736, 27.002 45.298 C 27.003 44.859, 24.303 44.652, 21.002 44.839 L 15 45.178 15 41 L 15 36.822 21.002 37.161 C 24.303 37.348, 27.003 37.163, 27.002 36.750 C 27.001 36.337, 24.286 36, 20.969 36 C 16.712 36, 14.779 36.413, 14.398 37.405 M 71.974 38.527 L 69.600 41.055 72.522 43.777 L 75.444 46.500 73.047 43.750 L 70.651 41 73 38.500 C 74.292 37.125, 75.124 36, 74.849 36 C 74.574 36, 73.280 37.137, 71.974 38.527 M 978.136 37.750 C 978.039 39.353, 977.353 40.020, 975.750 40.070 C 973.691 40.135, 973.663 40.204, 975.425 40.895 C 976.484 41.310, 977.690 42.516, 978.105 43.575 C 978.806 45.363, 978.864 45.345, 978.930 43.320 C 978.976 41.883, 979.768 40.991, 981.250 40.706 C 983.484 40.275, 983.484 40.271, 981.320 40.136 C 979.912 40.048, 978.986 39.203, 978.706 37.750 L 978.272 35.500 978.136 37.750 M 694.538 39.761 C 693.601 42.202, 693.954 44.182, 695.250 43.750 C 695.938 43.521, 696.556 42.808, 696.625 42.167 C 696.884 39.751, 697.031 39.631, 698.242 40.842 C 699.230 41.830, 699.204 42.256, 698.114 42.930 C 697.360 43.395, 697.066 44.299, 697.461 44.937 C 698.537 46.677, 701 44.279, 701 41.491 C 701 39.746, 700.320 39.127, 698.038 38.792 C 696.100 38.508, 694.891 38.842, 694.538 39.761 M 1000.667 38.667 C 1000.300 39.033, 1000 40.121, 1000 41.083 C 1000 42.046, 999.460 43.013, 998.801 43.233 C 998.023 43.492, 998.163 43.848, 999.199 44.246 C 1000.435 44.720, 1000.889 44.080, 1001.198 41.430 C 1001.418 39.543, 1001.539 38, 1001.466 38 C 1001.393 38, 1001.033 38.300, 1000.667 38.667 M 798.712 64.622 C 798.320 65.013, 798 66.258, 798 67.389 C 798 69.392, 798.040 69.388, 799.557 67.223 C 801.650 64.234, 806.344 64.249, 808.512 67.250 L 810.137 69.500 809.819 67 C 809.532 64.753, 808.989 64.470, 804.462 64.205 C 801.690 64.043, 799.103 64.230, 798.712 64.622 M 41.102 70.500 C 41.130 73.362, 41.355 73.952, 41.895 72.573 C 42.641 70.671, 42.660 70.671, 43.397 72.573 C 44.097 74.377, 44.234 74.340, 45.537 72 C 46.303 70.625, 46.929 69.050, 46.929 68.500 C 46.929 67.950, 46.286 68.625, 45.500 70 C 44.714 71.375, 44.055 72.024, 44.035 71.441 C 44.016 70.859, 43.339 69.509, 42.532 68.441 C 41.163 66.632, 41.066 66.771, 41.102 70.500 M 84.592 67.851 C 84.252 68.401, 84.855 68.589, 85.999 68.290 C 87.640 67.861, 88 68.258, 88 70.500 C 88 72.802, 87.662 73.145, 85.856 72.673 C 84.325 72.272, 84.020 72.420, 84.789 73.189 C 85.381 73.781, 86.601 73.983, 87.500 73.638 C 89.657 72.811, 89.129 67.636, 86.843 67.203 C 85.932 67.031, 84.919 67.322, 84.592 67.851 M 112.195 70.500 C 112.175 72.700, 112.391 73.919, 112.676 73.208 C 113.100 72.153, 113.497 72.153, 114.847 73.208 C 116.315 74.355, 116.350 74.309, 115.164 72.794 C 114.429 71.855, 114.161 70.548, 114.568 69.889 C 115.018 69.161, 114.886 68.953, 114.230 69.358 C 113.637 69.724, 112.945 69.231, 112.692 68.262 C 112.439 67.293, 112.215 68.300, 112.195 70.500 M 119.015 70.750 C 119.027 73.527, 119.280 74.111, 119.992 73 C 120.522 72.175, 120.721 70.749, 120.436 69.831 C 120.109 68.779, 120.579 67.991, 121.708 67.697 C 123.108 67.334, 123.007 67.207, 121.250 67.116 C 119.294 67.015, 119.002 67.489, 119.015 70.750 M 158 70.500 C 158 73.497, 158.323 73.983, 160.250 73.884 C 161.943 73.797, 162.067 73.655, 160.750 73.311 C 159.787 73.059, 159 72.469, 159 72 C 159 71.531, 159.787 70.941, 160.750 70.689 C 162.417 70.254, 162.417 70.226, 160.750 70.116 C 159.787 70.052, 159 69.583, 159 69.073 C 159 68.564, 159.787 67.941, 160.750 67.689 C 162.067 67.345, 161.943 67.203, 160.250 67.116 C 158.323 67.017, 158 67.503, 158 70.500 M 202.200 68.200 C 200.573 69.827, 200.692 71.499, 202.542 73.035 C 203.633 73.940, 204.397 74.003, 205.149 73.251 C 205.901 72.499, 205.669 72.233, 204.357 72.343 C 203.114 72.448, 202.500 71.838, 202.500 70.500 C 202.500 69.214, 203.121 68.549, 204.239 68.637 C 205.196 68.712, 205.732 68.375, 205.430 67.887 C 204.680 66.673, 203.625 66.775, 202.200 68.200 M 348 70.500 C 348 73.333, 348.381 74, 350 74 C 351.100 74, 352 73.550, 352 73 C 352 72.450, 351.550 72, 351 72 C 350.450 72, 350 70.875, 350 69.500 C 350 68.125, 349.550 67, 349 67 C 348.450 67, 348 68.575, 348 70.500 M 360.667 67.667 C 360.300 68.033, 360 69.397, 360 70.698 C 360 73.972, 362.677 74.723, 365.095 72.128 C 367.505 69.542, 368.705 69.434, 369.311 71.750 C 369.746 73.417, 369.774 73.417, 369.884 71.750 C 369.948 70.787, 370.417 70, 370.927 70 C 371.436 70, 372.059 70.787, 372.311 71.750 C 372.636 72.995, 372.801 72.813, 372.884 71.118 C 372.992 68.910, 372.713 68.775, 369.067 69.264 C 366.247 69.642, 364.982 69.397, 364.598 68.396 C 364.038 66.936, 361.811 66.523, 360.667 67.667 M 393.150 70.177 C 393.286 73.202, 393.337 73.254, 393.716 70.750 C 393.945 69.237, 394.601 68, 395.173 68 C 395.746 68, 395.955 68.675, 395.638 69.500 C 395.322 70.325, 395.532 71, 396.105 71 C 397.842 71, 396.604 67.547, 394.739 67.188 C 393.347 66.920, 393.030 67.516, 393.150 70.177 M 536.182 67.887 C 535.241 68.469, 535.184 69.355, 535.959 71.393 C 537.178 74.598, 539.192 73.922, 538.729 70.464 C 538.327 67.465, 537.773 66.904, 536.182 67.887 M 553.079 70.323 C 553.014 73.447, 553.320 74.086, 554.750 73.813 C 556.950 73.394, 557.774 69, 555.653 69 C 554.835 69, 553.940 68.438, 553.662 67.750 C 553.385 67.063, 553.122 68.220, 553.079 70.323 M 587.139 70.030 C 586.508 71.842, 586.218 73.551, 586.495 73.829 C 586.773 74.106, 587 73.756, 587 73.050 C 587 72.259, 587.767 71.967, 589 72.290 C 591.321 72.897, 591.419 72.384, 589.609 69.118 L 588.288 66.735 587.139 70.030 M 598 67.883 C 598 68.369, 597.100 69.002, 596 69.290 C 593.821 69.860, 593.554 70.747, 594.914 72.896 C 596.380 75.210, 599 73.372, 599 70.031 C 599 68.364, 598.775 67, 598.500 67 C 598.225 67, 598 67.398, 598 67.883 M 609 67.883 C 609 68.369, 608.100 69.002, 607 69.290 C 604.851 69.852, 604.555 70.750, 605.845 72.784 C 607.232 74.969, 610 73.043, 610 69.893 C 610 68.302, 609.775 67, 609.500 67 C 609.225 67, 609 67.398, 609 67.883 M 659.120 70.086 C 658.499 71.867, 658.218 73.551, 658.495 73.829 C 658.773 74.106, 659 73.756, 659 73.050 C 659 72.250, 659.769 71.968, 661.041 72.300 C 662.754 72.748, 662.977 72.485, 662.429 70.667 C 661.298 66.918, 660.286 66.740, 659.120 70.086 M 679 70.667 C 679 75, 679.608 74.808, 680.319 70.250 C 680.597 68.463, 680.415 67, 679.913 67 C 679.411 67, 679 68.650, 679 70.667 M 818 69.059 C 818 70.191, 817.550 70.840, 817 70.500 C 815.418 69.522, 815.838 71.620, 817.500 73 C 818.786 74.068, 819 73.729, 819 70.622 C 819 68.630, 818.775 67, 818.500 67 C 818.225 67, 818 67.927, 818 69.059 M 825.015 70.250 C 825.003 73.284, 825.366 74, 826.917 74 C 827.971 74, 829.096 73.438, 829.417 72.750 C 829.883 71.750, 830.117 71.750, 830.583 72.750 C 830.904 73.438, 831.917 73.993, 832.833 73.985 C 834.128 73.973, 834.202 73.781, 833.166 73.124 C 832.100 72.448, 832.163 72.151, 833.480 71.646 C 836.151 70.621, 834.294 69.190, 830.435 69.299 C 828.311 69.359, 826.494 68.813, 825.948 67.950 C 825.296 66.919, 825.026 67.584, 825.015 70.250 M 850.746 67.587 C 850.336 67.998, 850.032 69.496, 850.070 70.917 C 850.133 73.217, 850.226 73.281, 850.922 71.500 C 851.664 69.603, 851.744 69.625, 852.479 71.937 C 853.197 74.197, 853.347 74.246, 854.540 72.615 C 855.762 70.943, 855.849 70.946, 856.297 72.678 C 856.556 73.680, 856.806 72.700, 856.852 70.500 C 856.931 66.775, 856.836 66.633, 855.468 68.441 C 854.661 69.509, 853.980 70.859, 853.955 71.441 C 853.930 72.024, 853.366 71.227, 852.701 69.671 C 852.036 68.115, 851.156 67.177, 850.746 67.587 M 895.766 67.697 C 895.536 68.139, 895.382 69.625, 895.424 71 C 895.479 72.802, 896.128 73.589, 897.750 73.820 C 899.479 74.065, 900 73.646, 900 72.011 C 900 70.757, 899.561 70.153, 898.933 70.541 C 898.300 70.932, 897.995 70.490, 898.183 69.454 C 898.506 67.675, 896.526 66.236, 895.766 67.697 M 904 70.500 C 904 73.497, 904.323 73.983, 906.250 73.884 C 907.943 73.797, 908.067 73.655, 906.750 73.311 C 905.788 73.059, 905 72.469, 905 72 C 905 71.531, 905.788 70.941, 906.750 70.689 C 908.417 70.254, 908.417 70.226, 906.750 70.116 C 905.788 70.052, 905 69.583, 905 69.073 C 905 68.564, 905.788 67.941, 906.750 67.689 C 908.067 67.345, 907.943 67.203, 906.250 67.116 C 904.323 67.017, 904 67.503, 904 70.500 M 361 70.500 C 361 73.096, 363.409 74.024, 364.246 71.750 C 364.934 69.878, 364.018 68, 362.417 68 C 361.572 68, 361 69.010, 361 70.500 M 733.971 69.039 C 732.975 69.669, 732.903 69.974, 733.750 69.985 C 734.438 69.993, 735 70.648, 735 71.441 C 735 72.234, 735.351 73.099, 735.780 73.364 C 736.588 73.863, 736.696 69.362, 735.895 68.562 C 735.646 68.313, 734.780 68.527, 733.971 69.039 M 802.617 69.556 C 801.725 71.879, 801.794 72, 804 72 C 806.325 72, 806.593 70.737, 804.617 69.097 C 803.546 68.208, 803.094 68.312, 802.617 69.556 M 876.261 70.462 C 876.766 74.234, 878 74.734, 878 71.167 C 878 69.425, 877.535 68, 876.966 68 C 876.397 68, 876.080 69.108, 876.261 70.462 M 983.250 68.706 C 981.538 69.036, 981.033 69.780, 981.136 71.820 C 981.256 74.176, 981.325 74.228, 981.706 72.250 C 982.242 69.465, 985 69.256, 985 72 C 985 73.100, 985.372 74, 985.827 74 C 986.282 74, 986.455 72.650, 986.213 71 C 985.971 69.350, 985.712 68.061, 985.637 68.136 C 985.561 68.211, 984.487 68.467, 983.250 68.706 M 51 70.941 C 51 73.417, 52.828 74.574, 54.337 73.054 C 55.224 72.160, 55.084 72.040, 53.750 72.548 C 52.554 73.003, 52 72.728, 52 71.680 C 52 70.837, 52.788 69.941, 53.750 69.689 C 55.067 69.345, 54.943 69.203, 53.250 69.116 C 51.650 69.033, 51 69.560, 51 70.941 M 65 69.941 C 65 70.459, 65.498 71.190, 66.107 71.566 C 66.878 72.043, 66.803 72.510, 65.857 73.110 C 64.949 73.685, 64.894 73.974, 65.691 73.985 C 67.485 74.008, 68.430 71.884, 67.015 71.009 C 66.049 70.412, 66.076 70.122, 67.137 69.700 C 68.087 69.322, 67.970 69.134, 66.750 69.079 C 65.787 69.036, 65 69.423, 65 69.941 M 69.336 70.567 C 69.005 71.429, 69.244 72.644, 69.867 73.267 C 70.711 74.111, 71.319 74.079, 72.250 73.141 C 73.252 72.131, 73.153 72.014, 71.750 72.548 C 70.554 73.003, 70 72.728, 70 71.680 C 70 70.837, 70.787 69.941, 71.750 69.689 C 73.390 69.261, 73.388 69.225, 71.719 69.116 C 70.739 69.052, 69.667 69.705, 69.336 70.567 M 101.336 70.567 C 101.005 71.429, 101.244 72.644, 101.867 73.267 C 102.711 74.111, 103.319 74.079, 104.250 73.141 C 105.252 72.131, 105.153 72.014, 103.750 72.548 C 102.505 73.022, 102 72.719, 102 71.500 C 102 70.387, 102.526 69.988, 103.500 70.362 C 104.325 70.678, 105 70.501, 105 69.969 C 105 68.380, 101.986 68.872, 101.336 70.567 M 108.250 69.631 C 110.064 70.166, 110.479 71.188, 109.342 72.325 C 108.980 72.687, 108.070 72.473, 107.319 71.850 C 106.236 70.951, 106.088 71.067, 106.603 72.408 C 107.475 74.681, 110.500 73.977, 110.500 71.500 C 110.500 70.263, 109.754 69.450, 108.500 69.321 C 106.946 69.161, 106.890 69.230, 108.250 69.631 M 125.180 71.172 C 125.356 72.366, 126.175 73.525, 127 73.748 C 128.193 74.070, 128.227 73.961, 127.166 73.215 C 126.089 72.459, 126.149 72.157, 127.480 71.646 C 129.393 70.912, 128.592 69, 126.371 69 C 125.390 69, 124.973 69.760, 125.180 71.172 M 133.348 71.197 C 133.721 73.645, 135.464 74.676, 136.472 73.046 C 136.832 72.463, 136.386 71.701, 135.480 71.354 C 134.163 70.849, 134.100 70.552, 135.166 69.876 C 136.189 69.228, 136.093 69.027, 134.756 69.015 C 133.522 69.004, 133.111 69.642, 133.348 71.197 M 138.169 71.161 C 138.351 72.447, 139.175 73.500, 140 73.500 C 142.169 73.500, 141.870 69.599, 139.669 69.175 C 138.249 68.901, 137.912 69.347, 138.169 71.161 M 143.116 71.250 C 143.203 72.943, 143.345 73.067, 143.689 71.750 C 144.331 69.294, 145.778 69.571, 146.294 72.250 C 146.666 74.179, 146.747 74.108, 146.864 71.750 C 146.969 69.621, 146.548 69, 145 69 C 143.558 69, 143.032 69.628, 143.116 71.250 M 150 70 C 151.268 70.819, 151.216 70.972, 149.667 70.985 C 147.437 71.003, 147.992 73.369, 150.333 73.823 C 151.541 74.058, 152 73.438, 152 71.573 C 152 69.783, 151.467 69.005, 150.250 69.015 C 148.754 69.028, 148.718 69.172, 150 70 M 163.116 71.250 C 163.203 72.943, 163.345 73.067, 163.689 71.750 C 163.941 70.787, 164.531 70, 165 70 C 165.469 70, 166.059 70.787, 166.311 71.750 C 166.746 73.417, 166.774 73.417, 166.884 71.750 C 167.051 69.233, 168.782 69.592, 169.294 72.250 C 169.666 74.179, 169.747 74.108, 169.864 71.750 C 169.988 69.248, 169.685 69, 166.500 69 C 163.503 69, 163.017 69.323, 163.116 71.250 M 173 69.909 C 174.284 70.816, 174.236 70.972, 172.667 70.985 C 170.393 71.004, 171.014 73.374, 173.414 73.839 C 174.732 74.094, 175.081 73.621, 174.831 71.917 C 174.649 70.674, 173.825 69.475, 173 69.252 C 171.667 68.893, 171.667 68.966, 173 69.909 M 184.500 69.938 C 186.222 70.731, 186.257 70.869, 184.750 70.930 C 182.248 71.030, 182.557 74, 185.070 74 C 186.641 74, 187.062 73.461, 186.820 71.760 C 186.626 70.407, 185.708 69.421, 184.500 69.269 L 182.500 69.017 184.500 69.938 M 188.136 71.750 C 188.253 74.108, 188.334 74.179, 188.706 72.250 C 189.222 69.571, 190.669 69.294, 191.311 71.750 C 191.655 73.067, 191.797 72.943, 191.884 71.250 C 191.968 69.628, 191.442 69, 190 69 C 188.452 69, 188.031 69.621, 188.136 71.750 M 193.380 70.452 C 193.074 71.251, 193.114 72.376, 193.470 72.952 C 194.285 74.270, 197 74.331, 197 73.031 C 197 72.499, 196.325 72.322, 195.500 72.638 C 194.526 73.012, 194 72.613, 194 71.500 C 194 70.387, 194.526 69.988, 195.500 70.362 C 196.325 70.678, 197 70.501, 197 69.969 C 197 68.440, 193.998 68.841, 193.380 70.452 M 209 70 C 210 70.646, 210.083 70.974, 209.250 70.985 C 208.563 70.993, 208 71.675, 208 72.500 C 208 73.325, 208.675 74, 209.500 74 C 210.433 74, 211 73.056, 211 71.500 C 211 69.780, 210.454 69.005, 209.250 69.015 C 207.754 69.028, 207.718 69.172, 209 70 M 215.169 71.161 C 215.351 72.447, 216.175 73.500, 217 73.500 C 219.169 73.500, 218.870 69.599, 216.669 69.175 C 215.249 68.901, 214.912 69.347, 215.169 71.161 M 220.136 71.750 C 220.253 74.108, 220.334 74.179, 220.706 72.250 C 220.944 71.013, 221.527 70, 222 70 C 222.473 70, 223.056 71.013, 223.294 72.250 C 223.666 74.179, 223.747 74.108, 223.864 71.750 C 223.969 69.621, 223.548 69, 222 69 C 220.452 69, 220.031 69.621, 220.136 71.750 M 225.380 70.452 C 224.668 72.308, 225.707 74, 227.559 74 C 228.429 74, 229 73.010, 229 71.500 C 229 68.752, 226.329 67.979, 225.380 70.452 M 232 70 C 233 70.646, 233.083 70.974, 232.250 70.985 C 231.563 70.993, 231 71.675, 231 72.500 C 231 73.325, 231.675 74, 232.500 74 C 233.433 74, 234 73.056, 234 71.500 C 234 69.780, 233.454 69.005, 232.250 69.015 C 230.754 69.028, 230.718 69.172, 232 70 M 376 70 C 377.268 70.819, 377.216 70.972, 375.667 70.985 C 373.437 71.003, 373.992 73.369, 376.333 73.823 C 377.541 74.058, 378 73.438, 378 71.573 C 378 69.783, 377.467 69.005, 376.250 69.015 C 374.754 69.028, 374.718 69.172, 376 70 M 398.336 70.567 C 397.614 72.448, 399.384 74.499, 400.913 73.554 C 402.561 72.535, 402.216 69, 400.469 69 C 399.626 69, 398.667 69.705, 398.336 70.567 M 413.336 70.567 C 413.005 71.429, 413.244 72.644, 413.867 73.267 C 414.711 74.111, 415.319 74.079, 416.250 73.141 C 417.252 72.131, 417.153 72.014, 415.750 72.548 C 414.554 73.003, 414 72.728, 414 71.680 C 414 70.837, 414.788 69.941, 415.750 69.689 C 417.390 69.261, 417.388 69.225, 415.719 69.116 C 414.739 69.052, 413.667 69.705, 413.336 70.567 M 423.180 71.250 C 423.356 72.487, 424.175 73.500, 425 73.500 C 425.825 73.500, 426.644 72.487, 426.820 71.250 C 427.065 69.518, 426.646 69, 425 69 C 423.354 69, 422.935 69.518, 423.180 71.250 M 558.380 70.452 C 558.074 71.251, 558.114 72.376, 558.470 72.952 C 559.285 74.270, 562 74.331, 562 73.031 C 562 72.499, 561.325 72.322, 560.500 72.638 C 559.526 73.012, 559 72.613, 559 71.500 C 559 70.387, 559.526 69.988, 560.500 70.362 C 561.325 70.678, 562 70.501, 562 69.969 C 562 68.440, 558.998 68.841, 558.380 70.452 M 564.336 70.990 C 564.434 72.482, 565.201 73.613, 566.250 73.813 C 567.605 74.071, 567.969 73.510, 567.864 71.323 C 567.750 68.965, 567.656 68.871, 567.294 70.750 C 567.056 71.987, 566.473 73, 566 73 C 565.527 73, 564.922 71.987, 564.656 70.750 C 564.227 68.755, 564.191 68.782, 564.336 70.990 M 575 70 C 576.268 70.819, 576.216 70.972, 574.667 70.985 C 572.437 71.003, 572.992 73.369, 575.333 73.823 C 576.541 74.058, 577 73.438, 577 71.573 C 577 69.783, 576.467 69.005, 575.250 69.015 C 573.754 69.028, 573.718 69.172, 575 70 M 611.180 71.172 C 611.356 72.366, 612.175 73.525, 613 73.748 C 614.193 74.070, 614.227 73.961, 613.166 73.215 C 612.089 72.459, 612.149 72.157, 613.480 71.646 C 615.393 70.912, 614.592 69, 612.371 69 C 611.390 69, 610.973 69.760, 611.180 71.172 M 616.336 70.567 C 615.614 72.448, 617.384 74.499, 618.913 73.554 C 620.561 72.535, 620.216 69, 618.469 69 C 617.626 69, 616.667 69.705, 616.336 70.567 M 651.863 69.894 C 652.950 70.583, 652.965 70.845, 651.936 71.188 C 650.426 71.691, 651.562 74.007, 653.309 73.985 C 654.121 73.974, 654.076 73.701, 653.166 73.124 C 652.100 72.448, 652.163 72.151, 653.480 71.646 C 655.474 70.881, 654.550 68.994, 652.191 69.015 C 650.855 69.027, 650.786 69.212, 651.863 69.894 M 697.260 70.990 C 697.400 72.442, 698.230 73.619, 699.250 73.813 C 700.212 73.997, 701 73.637, 701 73.014 C 701 72.392, 700.546 72.162, 699.992 72.505 C 699.437 72.848, 698.541 72.087, 698.002 70.814 L 697.020 68.500 697.260 70.990 M 703.834 69.876 C 704.900 70.552, 704.837 70.849, 703.520 71.354 C 701.638 72.076, 702.393 74, 704.559 74 C 705.429 74, 706 73.010, 706 71.500 C 706 69.780, 705.454 69.005, 704.250 69.015 C 702.910 69.027, 702.812 69.229, 703.834 69.876 M 721.336 70.567 C 720.614 72.448, 722.384 74.499, 723.913 73.554 C 725.561 72.535, 725.216 69, 723.469 69 C 722.626 69, 721.667 69.705, 721.336 70.567 M 738.180 71.250 C 738.356 72.487, 739.175 73.500, 740 73.500 C 740.825 73.500, 741.644 72.487, 741.820 71.250 C 742.065 69.518, 741.646 69, 740 69 C 738.354 69, 737.935 69.518, 738.180 71.250 M 755 71 C 755 72.211, 755.690 73.028, 756.750 73.070 C 758.246 73.130, 758.210 73.265, 756.500 74 C 754.592 74.820, 754.603 74.863, 756.750 74.930 C 758.599 74.987, 759 74.465, 759 72 C 759 69.667, 758.556 69, 757 69 C 755.667 69, 755 69.667, 755 71 M 821.500 70 C 823.315 70.780, 823.330 70.866, 821.667 70.930 C 819.448 71.015, 819.990 73.369, 822.333 73.823 C 823.541 74.058, 824 73.438, 824 71.573 C 824 69.551, 823.519 69.015, 821.750 69.070 C 819.603 69.137, 819.592 69.180, 821.500 70 M 835.704 70.329 C 835.116 71.861, 836.730 74.010, 838.450 73.985 C 839.028 73.976, 838.825 73.533, 838 73 C 836.732 72.181, 836.784 72.028, 838.333 72.015 C 839.351 72.007, 839.982 71.444, 839.750 70.750 C 839.149 68.944, 836.347 68.652, 835.704 70.329 M 859.500 70 C 861.210 70.735, 861.246 70.870, 859.750 70.930 C 857.300 71.028, 857.542 74, 860 74 C 861.467 74, 862 73.333, 862 71.500 C 862 69.553, 861.502 69.016, 859.750 69.070 C 857.603 69.137, 857.592 69.180, 859.500 70 M 868.088 69.925 C 866.872 70.694, 866.872 71.009, 868.088 72.191 C 868.865 72.945, 870.737 73.656, 872.250 73.770 C 874.569 73.945, 875 73.587, 875 71.489 C 875 68.451, 872.060 68.054, 871.293 70.989 C 871.007 72.083, 870.343 72.712, 869.818 72.388 C 869.293 72.063, 869.105 71.168, 869.400 70.399 C 870.027 68.766, 869.958 68.741, 868.088 69.925 M 882.116 71.177 C 882.201 72.871, 882.356 73.026, 882.689 71.750 C 883.330 69.299, 884.768 69.570, 885.344 72.250 C 885.773 74.245, 885.809 74.218, 885.664 72.010 C 885.566 70.518, 884.799 69.387, 883.750 69.187 C 882.466 68.942, 882.031 69.473, 882.116 71.177 M 887 71 C 887 72.211, 887.690 73.028, 888.750 73.070 C 890.246 73.130, 890.210 73.265, 888.500 74 C 886.592 74.820, 886.603 74.863, 888.750 74.930 C 890.599 74.987, 891 74.465, 891 72 C 891 69.667, 890.556 69, 889 69 C 887.667 69, 887 69.667, 887 71 M 913.380 70.452 C 913.074 71.251, 913.114 72.376, 913.470 72.952 C 914.295 74.287, 917 74.324, 917 73 C 917 72.450, 916.494 72.112, 915.875 72.250 C 913.957 72.676, 913.781 70.196, 915.695 69.700 C 917.400 69.258, 917.402 69.226, 915.719 69.116 C 914.739 69.052, 913.686 69.653, 913.380 70.452 M 918.380 70.452 C 917.683 72.267, 918.695 74, 920.452 74 C 921.968 74, 923.292 71.282, 922.444 69.910 C 921.570 68.495, 918.999 68.839, 918.380 70.452 M 924.070 71.250 C 924.137 73.383, 924.182 73.396, 924.935 71.500 L 925.730 69.500 926.249 71.500 C 926.672 73.132, 926.789 73.178, 926.884 71.750 C 927.051 69.233, 928.782 69.592, 929.294 72.250 C 929.666 74.179, 929.747 74.108, 929.864 71.750 C 929.984 69.331, 929.639 69, 927 69 C 924.535 69, 924.013 69.401, 924.070 71.250 M 931.063 71.750 L 931.127 74.500 932.199 72 L 933.271 69.500 934.036 72 C 934.767 74.391, 934.805 74.401, 934.900 72.250 C 934.955 71.013, 935.419 70, 935.930 70 C 936.442 70, 937.056 71.013, 937.294 72.250 C 937.666 74.179, 937.747 74.108, 937.864 71.750 C 937.988 69.248, 937.685 69, 934.500 69 C 931.333 69, 931.006 69.262, 931.063 71.750 M 939.380 70.452 C 938.668 72.308, 939.707 74, 941.559 74 C 942.429 74, 943 73.010, 943 71.500 C 943 68.752, 940.329 67.979, 939.380 70.452 M 945 70.211 C 945 70.710, 945.418 70.860, 945.928 70.544 C 946.438 70.229, 947.144 70.877, 947.495 71.985 C 948.153 74.058, 951 74.834, 951 72.941 C 951 72.359, 950.550 72.160, 950 72.500 C 949.450 72.840, 949 72.454, 949 71.642 C 949 70.831, 949.563 69.954, 950.250 69.694 C 950.938 69.434, 950.038 69.240, 948.250 69.263 C 946.462 69.286, 945 69.712, 945 70.211 M 952.666 70.427 C 952.074 71.971, 954.637 74.697, 955.691 73.643 C 956.044 73.289, 955.696 72.986, 954.917 72.970 C 953.911 72.948, 954.013 72.640, 955.271 71.908 C 956.245 71.341, 956.781 70.455, 956.462 69.939 C 955.584 68.519, 953.285 68.815, 952.666 70.427 M 966.250 71.500 C 966.250 72.692, 966.816 73.667, 967.509 73.667 C 968.201 73.667, 968.707 72.692, 968.634 71.500 C 968.459 68.673, 966.250 68.673, 966.250 71.500 M 970 72 C 970 75.321, 970.715 75.660, 973.471 73.645 C 975.776 71.959, 974.859 69, 972.031 69 C 970.441 69, 970 69.651, 970 72 M 976.169 71.161 C 976.351 72.447, 977.175 73.500, 978 73.500 C 980.169 73.500, 979.870 69.599, 977.669 69.175 C 976.249 68.901, 975.912 69.347, 976.169 71.161 M 32 73.500 C 32 75.500, 32.500 76, 34.500 76 C 36.500 76, 37 75.500, 37 73.500 C 37 71.500, 36.500 71, 34.500 71 C 32.500 71, 32 71.500, 32 73.500 M 809.079 71.679 C 809.036 72.327, 808.293 73.564, 807.429 74.429 C 806 75.857, 806.003 76, 807.460 76 C 809.262 76, 810.454 73.727, 809.673 71.783 C 809.325 70.916, 809.132 70.882, 809.079 71.679 M 798 73.892 C 798 75.098, 798.948 76.021, 800.618 76.440 C 802.058 76.802, 803.483 76.850, 803.785 76.549 C 804.086 76.247, 803.808 76, 803.167 76 C 802.525 76, 801.100 75.100, 800 74 C 798.076 72.076, 798 72.072, 798 73.892 M 560.799 357.043 C 558.763 358.118, 553.701 359.503, 549.549 360.120 C 541.004 361.391, 538.916 363.577, 547.250 362.526 C 554.143 361.657, 560.895 359.429, 564 357 C 567.195 354.501, 565.572 354.522, 560.799 357.043 M 517.202 359.750 C 517.393 360.712, 516.639 362.273, 515.525 363.217 C 513.770 364.705, 513.726 364.938, 515.193 364.967 C 516.984 365.002, 520 361.432, 520 359.277 C 520 358.575, 519.292 358, 518.427 358 C 517.462 358, 516.988 358.677, 517.202 359.750 M 506.537 362.250 C 506.233 364.038, 506.384 367.750, 506.874 370.500 C 507.743 375.378, 507.768 375.299, 507.882 367.250 C 507.947 362.712, 507.795 359, 507.545 359 C 507.295 359, 506.842 360.462, 506.537 362.250 M 431.431 361.112 C 431.053 361.723, 431.289 362.561, 431.956 362.973 C 432.786 363.485, 432.510 363.895, 431.085 364.268 C 428.717 364.887, 428.237 367, 430.465 367 C 432.071 367, 434 364.034, 434 361.566 C 434 359.757, 432.439 359.481, 431.431 361.112 M 484.222 365.500 C 484.218 367.700, 484.730 372.425, 485.358 376 L 486.500 382.500 491.500 382.377 C 497.975 382.218, 508 380.123, 508 378.929 C 508 378.418, 507.180 378, 506.178 378 C 505.176 378, 502.236 377.277, 499.644 376.394 C 495.804 375.086, 495.145 374.530, 496.088 373.394 C 497.573 371.605, 496.622 371.627, 493.072 373.463 C 490.818 374.629, 489 376.814, 489 378.358 C 489 378.465, 490.800 378.381, 493 378.171 C 495.484 377.935, 497 378.209, 497 378.895 C 497 379.503, 495.912 380, 494.582 380 C 493.252 380, 491.564 380.220, 490.832 380.489 C 488.160 381.471, 486.987 379.210, 485.621 370.446 C 484.811 365.244, 484.225 363.174, 484.222 365.500 M 523.085 367 C 523.006 369.671, 524.423 375.749, 526.173 380.250 C 527.102 382.639, 527.790 383, 531.410 383 C 533.702 383, 537.335 382.104, 539.484 381.008 C 542.486 379.478, 543.575 379.304, 544.181 380.258 C 544.614 380.941, 544.976 381.837, 544.985 382.250 C 545.009 383.454, 548.487 383.113, 549.825 381.775 C 550.792 380.808, 551.464 380.808, 553.011 381.775 C 555.406 383.270, 564.151 383.363, 569.248 381.948 C 571.310 381.375, 574.187 379.883, 575.643 378.631 C 577.942 376.653, 578.198 375.869, 577.594 372.649 C 577.212 370.612, 576.489 369.198, 575.988 369.508 C 575.448 369.841, 575.496 371.173, 576.104 372.773 C 576.966 375.040, 576.799 375.745, 575.067 377.147 C 573.932 378.066, 569.963 379.361, 566.248 380.025 C 560.480 381.056, 558.944 381.004, 555.746 379.667 C 553.686 378.806, 552 377.404, 552 376.551 C 552 375.698, 551.550 375, 551 375 C 550.450 375, 550 376.125, 550 377.500 C 550 380.970, 546.284 380.978, 545.413 377.511 L 544.789 375.021 542.264 377.007 C 540.875 378.100, 537.960 379.472, 535.787 380.057 C 530.121 381.583, 527.502 379.603, 525.454 372.244 C 523.260 364.365, 523.168 364.160, 523.085 367 M 565.694 365.639 C 564.761 366.573, 565.888 368, 567.559 368 C 568.352 368, 569 367.325, 569 366.500 C 569 364.994, 566.889 364.444, 565.694 365.639 M 446.313 368.786 C 445.659 369.201, 444.623 370.861, 444.009 372.476 C 443.035 375.038, 443.164 375.615, 445.024 377.018 C 446.941 378.464, 446.996 378.758, 445.577 379.936 C 444.709 380.656, 441.955 381.476, 439.457 381.758 C 435.670 382.185, 434.508 381.886, 432.458 379.960 C 430.412 378.039, 430 377.932, 430 379.326 C 430 381.826, 433.654 385, 436.532 385 C 440.634 385, 445.907 382.298, 447.156 379.556 C 448.110 377.463, 448.021 376.681, 446.659 375.175 C 444.637 372.942, 444.556 372, 446.383 372 C 447.144 372, 448.002 371.100, 448.290 370 C 448.842 367.890, 448.272 367.540, 446.313 368.786 M 480.032 372.316 C 480.014 373.314, 480.448 374.968, 480.995 375.990 C 481.839 377.568, 481.499 377.997, 478.745 378.834 C 469.252 381.719, 463.579 380.923, 458.492 375.992 C 455.142 372.746, 452.923 373.198, 455.500 376.603 C 457.526 379.278, 457.355 380.425, 454.411 383.923 C 451.508 387.374, 447.673 387.985, 446.080 385.250 C 445.166 383.681, 445.058 383.729, 445.030 385.715 C 444.993 388.407, 447.758 390.044, 450.555 388.986 C 451.685 388.559, 454.021 386.601, 455.746 384.636 C 458.682 381.292, 459.085 381.134, 462.033 382.161 C 465.766 383.463, 476.359 382.761, 480.250 380.955 C 482.236 380.033, 483 378.944, 483 377.031 C 483 375.574, 482.339 373.509, 481.532 372.441 C 480.157 370.624, 480.062 370.616, 480.032 372.316 M 515 384.706 C 515 389.539, 521.121 391.734, 524.423 388.085 C 526.108 386.223, 526.047 386.184, 522.215 386.698 C 518.885 387.145, 518.018 386.864, 516.636 384.891 C 515.019 382.582, 515 382.580, 515 384.706 M 438.475 388.041 C 438.121 388.613, 436.970 388.808, 435.916 388.473 C 434.569 388.046, 434 388.344, 434 389.476 C 434 390.723, 434.847 391.020, 437.750 390.793 C 441.760 390.480, 443.657 389.037, 441.697 387.792 C 440.060 386.751, 439.233 386.815, 438.475 388.041 M 537.560 387.904 C 537.217 388.459, 536.275 388.659, 535.468 388.349 C 534.577 388.008, 534 388.379, 534 389.294 C 534 390.373, 535.007 390.774, 537.535 390.702 C 540.072 390.630, 540.989 390.187, 540.785 389.134 C 540.432 387.316, 538.401 386.542, 537.560 387.904 M 547.652 388.465 C 547.047 390.042, 547.808 391, 549.667 391 C 550.400 391, 551 390.373, 551 389.607 C 551 387.717, 548.293 386.794, 547.652 388.465 M 478 389.427 C 478 390.354, 478.855 391, 480.083 391 C 482.520 391, 482.176 388.663, 479.667 388.177 C 478.680 387.985, 478 388.495, 478 389.427 M 497 389.500 C 497 390.333, 497.889 391, 499 391 C 500.111 391, 501 390.333, 501 389.500 C 501 388.667, 500.111 388, 499 388 C 497.889 388, 497 388.667, 497 389.500 M 22.150 638.750 C 22.270 641.766, 22.381 641.962, 22.716 639.750 C 22.945 638.237, 23.350 637, 23.614 637 C 23.879 637, 25.236 638.237, 26.629 639.750 C 28.022 641.263, 28.833 641.825, 28.432 641 C 27.381 638.838, 23.794 635, 22.826 635 C 22.372 635, 22.067 636.688, 22.150 638.750" stroke="none" fill="#f5f5f5" fill-rule="evenodd"/>
</svg>